[Header]
FileType HTR
DataType HTRS
FileVersion 1
NumSegments 64
NumFrames 3
DataFrameRate 30
EulerRotationOrder ZYX
CalibrationUnits mm
RotationUnits Degrees
GlobalAxisofGravity Y
BoneLengthAxis Y
ScaleFactor 1.0
[SegmentNames&Hierarchy]
Hips	GLOBAL
Spine	Hips
Spine1	Spine
Spine2	Spine1
Neck	Spine2
Head	Neck
LeftEye	Head
RightEye	Head
LeftShoulder	Spine2
LeftArm	LeftShoulder
LeftForeArm	LeftArm
LeftHand	LeftForeArm
LeftHandThumb1	LeftHand
LeftHandThumb2	LeftHandThumb1
LeftHandThumb3	LeftHandThumb2
LeftHandThumb4	LeftHandThumb3
LeftHandIndex1	LeftHand
LeftHandIndex2	LeftHandIndex1
LeftHandIndex3	LeftHandIndex2
LeftHandIndex4	LeftHandIndex3
LeftHandMiddle1	LeftHand
LeftHandMiddle2	LeftHandMiddle1
LeftHandMiddle3	LeftHandMiddle2
LeftHandMiddle4	LeftHandMiddle3
LeftHandRing1	LeftHand
LeftHandRing2	LeftHandRing1
LeftHandRing3	LeftHandRing2
LeftHandRing4	LeftHandRing3
LeftHandPinky1	LeftHand
LeftHandPinky2	LeftHandPinky1
LeftHandPinky3	LeftHandPinky2
LeftHandPinky4	LeftHandPinky3
RightShoulder	Spine2
RightArm	RightShoulder
RightForeArm	RightArm
RightHand	RightForeArm
RightHandPinky1	RightHand
RightHandPinky2	RightHandPinky1
RightHandPinky3	RightHandPinky2
RightHandPinky4	RightHandPinky3
RightHandRing1	RightHand
RightHandRing2	RightHandRing1
RightHandRing3	RightHandRing2
RightHandRing4	RightHandRing3
RightHandMiddle1	RightHand
RightHandMiddle2	RightHandMiddle1
RightHandMiddle3	RightHandMiddle2
RightHandMiddle4	RightHandMiddle3
RightHandIndex1	RightHand
RightHandIndex2	RightHandIndex1
RightHandIndex3	RightHandIndex2
RightHandIndex4	RightHandIndex3
RightHandThumb1	RightHand
RightHandThumb2	RightHandThumb1
RightHandThumb3	RightHandThumb2
RightHandThumb4	RightHandThumb3
LeftUpLeg	Hips
LeftLeg	LeftUpLeg
LeftFoot	LeftLeg
LeftToeBase	LeftFoot
RightUpLeg	Hips
RightLeg	RightUpLeg
RightFoot	RightLeg
RightToeBase	RightFoot
[BasePosition]
Hips	0	0	0	0	0	0	1
Spine	0	0	0	0	0	0	1
Spine1	0	0	0	0	0	0	1
Spine2	0	0	0	0	0	0	1
Neck	0	0	0	0	0	0	1
Head	0	0	0	0	0	0	1
LeftEye	0	0	0	0	0	0	1
RightEye	0	0	0	0	0	0	1
LeftShoulder	0	0	0	0	0	0	1
LeftArm	0	0	0	0	0	0	1
LeftForeArm	0	0	0	0	0	0	1
LeftHand	0	0	0	0	0	0	1
LeftHandThumb1	0	0	0	0	0	0	1
LeftHandThumb2	0	0	0	0	0	0	1
LeftHandThumb3	0	0	0	0	0	0	1
LeftHandThumb4	0	0	0	0	0	0	1
LeftHandIndex1	0	0	0	0	0	0	1
LeftHandIndex2	0	0	0	0	0	0	1
LeftHandIndex3	0	0	0	0	0	0	1
LeftHandIndex4	0	0	0	0	0	0	1
LeftHandMiddle1	0	0	0	0	0	0	1
LeftHandMiddle2	0	0	0	0	0	0	1
LeftHandMiddle3	0	0	0	0	0	0	1
LeftHandMiddle4	0	0	0	0	0	0	1
LeftHandRing1	0	0	0	0	0	0	1
LeftHandRing2	0	0	0	0	0	0	1
LeftHandRing3	0	0	0	0	0	0	1
LeftHandRing4	0	0	0	0	0	0	1
LeftHandPinky1	0	0	0	0	0	0	1
LeftHandPinky2	0	0	0	0	0	0	1
LeftHandPinky3	0	0	0	0	0	0	1
LeftHandPinky4	0	0	0	0	0	0	1
RightShoulder	0	0	0	0	0	0	1
RightArm	0	0	0	0	0	0	1
RightForeArm	0	0	0	0	0	0	1
RightHand	0	0	0	0	0	0	1
RightHandPinky1	0	0	0	0	0	0	1
RightHandPinky2	0	0	0	0	0	0	1
RightHandPinky3	0	0	0	0	0	0	1
RightHandPinky4	0	0	0	0	0	0	1
RightHandRing1	0	0	0	0	0	0	1
RightHandRing2	0	0	0	0	0	0	1
RightHandRing3	0	0	0	0	0	0	1
RightHandRing4	0	0	0	0	0	0	1
RightHandMiddle1	0	0	0	0	0	0	1
RightHandMiddle2	0	0	0	0	0	0	1
RightHandMiddle3	0	0	0	0	0	0	1
RightHandMiddle4	0	0	0	0	0	0	1
RightHandIndex1	0	0	0	0	0	0	1
RightHandIndex2	0	0	0	0	0	0	1
RightHandIndex3	0	0	0	0	0	0	1
RightHandIndex4	0	0	0	0	0	0	1
RightHandThumb1	0	0	0	0	0	0	1
RightHandThumb2	0	0	0	0	0	0	1
RightHandThumb3	0	0	0	0	0	0	1
RightHandThumb4	0	0	0	0	0	0	1
LeftUpLeg	0	0	0	0	0	0	1
LeftLeg	0	0	0	0	0	0	1
LeftFoot	0	0	0	0	0	0	1
LeftToeBase	0	0	0	0	0	0	1
RightUpLeg	0	0	0	0	0	0	1
RightLeg	0	0	0	0	0	0	1
RightFoot	0	0	0	0	0	0	1
RightToeBase	0	0	0	0	0	0	1
[Hips]
15	-37.33579254	1020.328308	-104.65802	-5.446160316	33.61382675	-2.499216795	1.0
16	-37.18419647	1020.006592	-108.0519867	-6.206140518	36.99014282	-2.839355946	1.0
17	-37.22951126	1021.791687	-106.4621277	-7.173713684	41.02783966	-3.664630651	1.0
[Spine]
15	0	101.8159943	1.315000057	3.391044855	3.412627459	2.053042889	1.0
16	0	101.8159943	1.315000057	3.462636948	3.013279438	2.149031162	1.0
17	0	101.8159943	1.315000057	3.511290312	2.662249327	2.471211433	1.0
[Spine1]
15	0	100.8349991	-10.00800037	1.171499491	2.393720627	5.057163239	1.0
16	0	100.8349991	-10.00800037	1.185839057	2.094522953	5.172261715	1.0
17	0	100.8349991	-10.00800037	1.174658298	1.833006144	5.183725357	1.0
[Spine2]
15	0	91	-13.73399925	1.019435287	2.045075655	1.142302871	1.0
16	0	91	-13.73399925	1.058231831	1.735112906	1.072230339	1.0
17	0	91	-13.73399925	1.076184273	1.457041979	0.9742975235	1.0
[Neck]
15	0	166.7169952	-25.16200066	7.785694122	7.740137577	-1.178202868	1.0
16	0	166.7169952	-25.16200066	7.628330708	7.114420891	-0.9678055644	1.0
17	0	166.7169952	-25.16200066	7.499154568	6.39361763	-0.8373308182	1.0
[Head]
15	0	96.17900085	16.84999847	-3.127316236	26.20269394	-9.855306625	1.0
16	0	96.17900085	16.84999847	-3.517919779	25.48888779	-10.21965122	1.0
17	0	96.17900085	16.84999847	-3.901818275	24.1695385	-10.38532543	1.0
[LeftEye]
15	30.6760006	64.09500122	92.83599854	0	0	0	1.0
16	30.6760006	64.09500122	92.83599854	0	0	0	1.0
17	30.6760006	64.09500122	92.83599854	0	0	0	1.0
[RightEye]
15	-30.6760006	64.09500122	92.83499908	0	0	0	1.0
16	-30.6760006	64.09500122	92.83499908	0	0	0	1.0
17	-30.6760006	64.09500122	92.83499908	0	0	0	1.0
[LeftShoulder]
15	45.70400238	109.4599991	-26.28000069	5.973735809	-10.25453091	-19.87106323	1.0
16	45.70400238	109.4599991	-26.28000069	6.109848022	-8.743693352	-20.17041206	1.0
17	45.70400238	109.4599991	-26.28000069	6.336754322	-7.426140785	-20.60982323	1.0
[LeftArm]
15	105.923996	-5.24600029	-22.32099915	18.24420738	2.662032127	-58.79039383	1.0
16	105.923996	-5.24600029	-22.32099915	20.07972336	2.868275166	-59.62312317	1.0
17	105.923996	-5.24600029	-22.32099915	21.54927635	2.776613712	-60.26237488	1.0
[LeftForeArm]
15	278.414978	-0.0009999999311	0	-3.183803074e-06	-23.31290817	-0.0001879810152	1.0
16	278.414978	-0.0009999999311	0	7.391257441e-06	-22.96964645	-0.0002386230917	1.0
17	278.414978	-0.0009999999311	0	3.152028285e-06	-22.21519089	-0.0002124271123	1.0
[LeftHand]
15	283.2879944	0	0	-25.36616516	-1.776703715	12.16468525	1.0
16	283.2879944	0	0	-26.75269127	-2.567663431	12.33950901	1.0
17	283.2879944	0	0	-28.48715591	-3.314870358	13.58469009	1.0
[LeftHandThumb1]
15	24.6609993	-15.75	26.8239994	-0.4889881611	2.201389551	4.818526268	1.0
16	24.6609993	-15.75	26.8239994	-0.4889881611	2.201389551	4.818526268	1.0
17	24.6609993	-15.75	26.8239994	-0.4889881611	2.201389551	4.818526268	1.0
[LeftHandThumb2]
15	32.29800034	-18.64699936	18.64699936	20.07823563	15.99067307	21.93872452	1.0
16	32.29800034	-18.64699936	18.64699936	20.21715546	16.4215641	22.09731865	1.0
17	32.29800034	-18.64699936	18.64699936	20.46307182	17.30453491	22.43948364	1.0
[LeftHandThumb3]
15	26.52600098	-15.31499958	15.31499958	-12.89639187	4.941568851	7.801619053	1.0
16	26.52600098	-15.31499958	15.31499958	-12.83631325	4.832307816	7.868227482	1.0
17	26.52600098	-15.31499958	15.31499958	-12.89627171	4.8675704	7.922818661	1.0
[LeftHandThumb4]
15	19.54599953	-11.28499985	11.28499985	0	0	0	1.0
16	19.54599953	-11.28499985	11.28499985	0	0	0	1.0
17	19.54599953	-11.28499985	11.28499985	0	0	0	1.0
[LeftHandIndex1]
15	91.09299469	-5.170999527	22.60099792	0.1732737273	-0.8075432777	-8.034103394	1.0
16	91.09299469	-5.170999527	22.60099792	0.2219527662	-0.7109662294	-8.00332737	1.0
17	91.09299469	-5.170999527	22.60099792	0.234546259	-0.6949712634	-7.957546711	1.0
[LeftHandIndex2]
15	36.76399994	0	0	-0.2673225105	1.747154117	-17.39689064	1.0
16	36.76399994	0	0	-0.2673176825	1.747162938	-17.39688492	1.0
17	36.76399994	0	0	-0.2673307955	1.747207403	-17.39731979	1.0
[LeftHandIndex3]
15	28.83100128	0	0	-0.05772395059	0.8194015026	-8.058797836	1.0
16	28.83100128	0	0	-0.05771935359	0.8194058537	-8.05878067	1.0
17	28.83100128	0	0	-0.05771642923	0.8194484711	-8.059195518	1.0
[LeftHandIndex4]
15	23.92700005	0	0	0	0	0	1.0
16	23.92700005	0	0	0	0	0	1.0
17	23.92700005	0	0	0	0	0	1.0
[LeftHandMiddle1]
15	95.33399963	0	0	-0.8294515014	3.405826807	-16.21834946	1.0
16	95.33399963	0	0	-0.827032268	3.298894644	-16.18424225	1.0
17	95.33399963	0	0	-0.8233987689	3.139867306	-16.13345146	1.0
[LeftHandMiddle2]
15	36.98199844	0	0	-0.2687872946	1.751826525	-17.44484329	1.0
16	36.98199844	0	0	-0.2681865394	1.749910116	-17.42522621	1.0
17	36.98199844	0	0	-0.2677187622	1.748402834	-17.40979767	1.0
[LeftHandMiddle3]
15	29.50900078	0	0	-0.300395757	1.849342346	-18.45066643	1.0
16	29.50900078	0	0	-0.2997634709	1.847458243	-18.43105698	1.0
17	29.50900078	0	0	-0.2992698848	1.845969558	-18.41572189	1.0
[LeftHandMiddle4]
15	28.3390007	0	0	0	0	0	1.0
16	28.3390007	0	0	0	0	0	1.0
17	28.3390007	0	0	0	0	0	1.0
[LeftHandRing1]
15	91.04499817	-0.4390000105	-18.65100098	-1.204676151	3.349287271	-21.42866516	1.0
16	91.04499817	-0.4390000105	-18.65100098	-1.202181935	3.413994551	-21.39451599	1.0
17	91.04499817	-0.4390000105	-18.65100098	-1.207288861	3.487272501	-21.46082878	1.0
[LeftHandRing2]
15	31.54000092	0	0	-0.38125211	2.07593298	-20.81165886	1.0
16	31.54000092	0	0	-0.3813184202	2.076089382	-20.81329727	1.0
17	31.54000092	0	0	-0.3823592365	2.078824997	-20.84200096	1.0
[LeftHandRing3]
15	29.37700081	0	0	-0.278675139	1.782956481	-17.76530838	1.0
16	29.37700081	0	0	-0.2787145674	1.78308022	-17.76660538	1.0
17	29.37700081	0	0	-0.2795928419	1.785815835	-17.79490662	1.0
[LeftHandRing4]
15	26.47500038	0	0	0	0	0	1.0
16	26.47500038	0	0	0	0	0	1.0
17	26.47500038	0	0	0	0	0	1.0
[LeftHandPinky1]
15	80.77799988	-4.887000084	-38.06099701	-1.631869078	6.27744627	-26.78785324	1.0
16	80.77799988	-4.887000084	-38.06099701	-1.640891194	6.141723633	-26.86117744	1.0
17	80.77799988	-4.887000084	-38.06099701	-1.655923724	6.068319321	-27.01099014	1.0
[LeftHandPinky2]
15	36	0	0	-0.2648457289	1.739261508	-17.31575966	1.0
16	36	0	0	-0.2647468746	1.738917351	-17.3121891	1.0
17	36	0	0	-0.2653065324	1.740716457	-17.33065987	1.0
[LeftHandPinky3]
15	21.14200211	0	0	-0.2383575886	1.651890755	-16.4200592	1.0
16	21.14200211	0	0	-0.2382276952	1.651485205	-16.41581154	1.0
17	21.14200211	0	0	-0.2387513369	1.653242707	-16.43393135	1.0
[LeftHandPinky4]
15	19.75699997	0	0	0	0	0	1.0
16	19.75699997	0	0	0	0	0	1.0
17	19.75699997	0	0	0	0	0	1.0
[RightShoulder]
15	-45.70000076	109.4620056	0	5.04085207	14.01826477	15.3792944	1.0
16	-45.70000076	109.4620056	0	5.097299099	14.17403984	15.61826611	1.0
17	-45.70000076	109.4620056	0	5.088685513	14.11443043	15.76018524	1.0
[RightArm]
15	-105.9280014	-5.248000145	-22.32099915	28.05642128	-9.192685127	48.2125206	1.0
16	-105.9280014	-5.248000145	-22.32099915	27.56124878	-9.241009712	47.56297302	1.0
17	-105.9280014	-5.248000145	-22.32099915	26.960783	-9.161425591	47.49316025	1.0
[RightForeArm]
15	-278.414978	0	0	-4.256407919e-06	14.67562771	3.585851687e-07	1.0
16	-278.414978	0	0	-5.144858619e-07	14.93970585	-6.324333754e-06	1.0
17	-278.414978	0	0	-5.46524052e-06	14.86833382	1.012539997e-05	1.0
[RightHand]
15	-283.2879944	0	0.0009999999311	-27.37633514	-10.69130611	7.464329243	1.0
16	-283.2879944	0	0.0009999999311	-27.93457794	-11.06487465	7.198086739	1.0
17	-283.2879944	0	0.0009999999311	-28.22563171	-11.29767227	6.748009682	1.0
[RightHandPinky1]
15	-80.76699829	-4.885000229	-38.06000137	-1.744603515	-3.852237701	27.59591866	1.0
16	-80.76699829	-4.885000229	-38.06000137	-1.762542009	-3.804383516	27.70809364	1.0
17	-80.76699829	-4.885000229	-38.06000137	-1.670336366	-4.147845268	27.32063484	1.0
[RightHandPinky2]
15	-36	0	0.0009999999311	-0.2148899287	-1.395619988	17.52526283	1.0
16	-36	0	0.0009999999311	-0.2164232135	-1.40046227	17.58802223	1.0
17	-36	0	0.0009999999311	-0.21808815	-1.405758142	17.65652084	1.0
[RightHandPinky3]
15	-21.14200211	0	0	-0.1934656799	-1.325801611	16.6036129	1.0
16	-21.14200211	0	0	-0.1948891431	-1.330588937	16.66508675	1.0
17	-21.14200211	0	0	-0.1966711581	-1.336525917	16.74191093	1.0
[RightHandPinky4]
15	-19.75699997	0	0	0	0	0	1.0
16	-19.75699997	0	0	0	0	0	1.0
17	-19.75699997	0	0	0	0	0	1.0
[RightHandRing1]
15	-91.03599548	-0.4390000105	-18.65100098	-1.122631192	-2.626627445	21.64778519	1.0
16	-91.03599548	-0.4390000105	-18.65100098	-1.136692047	-2.618162394	21.85690117	1.0
17	-91.03599548	-0.4390000105	-18.65100098	-1.115058184	-2.688229561	21.533041	1.0
[RightHandRing2]
15	-31.54000092	0	0	-0.3065730035	-1.658426046	20.94515991	1.0
16	-31.54000092	0	0	-0.3070751727	-1.659732699	20.96245956	1.0
17	-31.54000092	0	0	-0.3070823848	-1.659788609	20.96292496	1.0
[RightHandRing3]
15	-29.37700081	0	0	-0.2244520336	-1.425583959	17.894104	1.0
16	-29.37700081	0	0	-0.2248814106	-1.426917911	17.91144943	1.0
17	-29.37700081	0	0	-0.2248956561	-1.426946163	17.91175461	1.0
[RightHandRing4]
15	-26.47500038	0	0	0	0	0	1.0
16	-26.47500038	0	0	0	0	0	1.0
17	-26.47500038	0	0	0	0	0	1.0
[RightHandMiddle1]
15	-95.32500458	0	0	-0.727838397	-2.373385429	15.44540596	1.0
16	-95.32500458	0	0	-0.7350975871	-2.415683746	15.56516552	1.0
17	-95.32500458	0	0	-0.7188877463	-2.369414091	15.29616356	1.0
[RightHandMiddle2]
15	-36.98199844	0	0	-0.216274783	-1.400024652	17.5626297	1.0
16	-36.98199844	0	0	-0.2165151983	-1.400769234	17.57220459	1.0
17	-36.98199844	0	0	-0.2153890729	-1.39722383	17.52630997	1.0
[RightHandMiddle3]
15	-29.50900078	0	0	-0.2415845841	-1.479624987	18.57074165	1.0
16	-29.50900078	0	0	-0.2418297976	-1.480340123	18.58019638	1.0
17	-29.50900078	0	0	-0.24064973	-1.476833344	18.53436279	1.0
[RightHandMiddle4]
15	-28.3390007	0	0.0009999999311	0	0	0	1.0
16	-28.3390007	0	0.0009999999311	0	0	0	1.0
17	-28.3390007	0	0.0009999999311	0	0	0	1.0
[RightHandIndex1]
15	-91.08300018	-5.167999744	22.60099792	0.1268504411	1.28695786	7.282948971	1.0
16	-91.08300018	-5.167999744	22.60099792	0.1180992946	1.2252388	7.747423172	1.0
17	-91.08300018	-5.167999744	22.60099792	0.1515831798	1.159175396	7.780659199	1.0
[RightHandIndex2]
15	-36.76399994	0	0	-0.210789457	-1.382567048	17.33641434	1.0
16	-36.76399994	0	0	-0.2104040682	-1.381333828	17.32073402	1.0
17	-36.76399994	0	0	-0.2113917023	-1.384507537	17.36162186	1.0
[RightHandIndex3]
15	-28.83100128	0	0	-0.04496584833	-0.6443991065	7.982303619	1.0
16	-28.83100128	0	0	-0.0447861366	-0.6431325078	7.966628551	1.0
17	-28.83100128	0	0	-0.04524260387	-0.6464259028	8.007510185	1.0
[RightHandIndex4]
15	-23.92700005	0	0	0	0	0	1.0
16	-23.92700005	0	0	0	0	0	1.0
17	-23.92700005	0	0	0	0	0	1.0
[RightHandThumb1]
15	-24.64799881	-15.72700024	26.82600021	-1.658465981	-0.2891423702	-4.221325874	1.0
16	-24.64799881	-15.72700024	26.82600021	-1.658465981	-0.2891423702	-4.221325874	1.0
17	-24.64799881	-15.72700024	26.82600021	-1.658465981	-0.2891423702	-4.221325874	1.0
[RightHandThumb2]
15	-32.29800034	-18.64699936	18.64699936	22.60811234	-22.21994972	-23.57711792	1.0
16	-32.29800034	-18.64699936	18.64699936	22.74869156	-22.22590828	-23.51820946	1.0
17	-32.29800034	-18.64699936	18.64699936	22.80250359	-22.60864258	-23.70153618	1.0
[RightHandThumb3]
15	-26.52600098	-15.31399918	15.31399918	-14.4610014	-6.639286995	-11.41781425	1.0
16	-26.52600098	-15.31399918	15.31399918	-14.45497608	-6.630427837	-11.42359638	1.0
17	-26.52600098	-15.31399918	15.31399918	-14.47751713	-6.671957493	-11.39828968	1.0
[RightHandThumb4]
15	-19.54599953	-11.28499985	11.28499985	0	0	0	1.0
16	-19.54599953	-11.28499985	11.28499985	0	0	0	1.0
17	-19.54599953	-11.28499985	11.28499985	0	0	0	1.0
[LeftUpLeg]
15	82.07800293	-67.51699829	-15.99599934	-11.48617363	36.24389267	4.859297276	1.0
16	82.07800293	-67.51699829	-15.99599934	-12.12668324	35.5963707	4.131291389	1.0
17	82.07800293	-67.51699829	-15.99599934	-12.27795601	35.29957962	3.89468503	1.0
[LeftLeg]
15	0	-443.7049866	2.845999956	23.32048416	6.684825897	8.231894493	1.0
16	0	-443.7049866	2.845999956	23.42455864	6.833850384	9.322036743	1.0
17	0	-443.7049866	2.845999956	22.46365166	6.525835991	9.96506691	1.0
[LeftFoot]
15	0	-444.2789917	-29.8219986	-6.338959694	23.40928459	-8.274450302	1.0
16	0	-444.2789917	-29.8219986	-5.860311031	20.26638222	-7.736406803	1.0
17	0	-444.2789917	-29.8219986	-4.837096214	16.74689674	-7.08018589	1.0
[LeftToeBase]
15	0	-87.28699493	107.1060028	-4.90626955	-3.945288699e-05	3.769200021e-06	1.0
16	0	-87.28699493	107.1060028	-4.928527832	1.152200457e-05	3.297200522e-07	1.0
17	0	-87.28699493	107.1060028	-4.928526878	4.637003258e-06	1.551428454e-06	1.0
[RightUpLeg]
15	-82.07800293	-67.51699829	-15.99599934	-16.9962635	-23.86386871	2.068399906	1.0
16	-82.07800293	-67.51699829	-15.99599934	-18.92043304	-20.98584366	0.4151356518	1.0
17	-82.07800293	-67.51699829	-15.99599934	-19.68622398	-20.6389122	0.6068992615	1.0
[RightLeg]
15	0	-443.7049866	2.861999989	34.50114441	-7.364537239	-5.696139336	1.0
16	0	-443.7049866	2.861999989	40.53815842	-5.689792156	-1.887681007	1.0
17	0	-443.7049866	2.861999989	42.33181381	-3.148709297	0.5234454274	1.0
[RightFoot]
15	0	-444.2770081	-29.83799934	-3.031641006	-25.19408798	-0.9917476773	1.0
16	0	-444.2770081	-29.83799934	1.670421243	-29.93655205	-3.47002387	1.0
17	0	-444.2770081	-29.83799934	6.516518116	-30.04824257	-3.452254534	1.0
[RightToeBase]
15	0	-87.28699493	107.1060028	-7.589648247	-0.01000706386	-0.07236514241	1.0
16	0	-87.28699493	107.1060028	-7.613709927	-1.859650547e-05	3.329374522e-06	1.0
17	0	-87.28699493	107.1060028	-10.01159859	0.514043808	3.698274136	1.0
[EndOfFile]
